<svg width="136" height="24" viewBox="0 0 136 24" fill="none" xmlns="http://www.w3.org/2000/svg">
<path fill-rule="evenodd" clip-rule="evenodd" d="M1.92601 17.6452C2.89947 17.6452 3.6958 16.8488 3.6958 15.8754V11.55C3.6958 10.5938 4.47089 9.81862 5.42706 9.81862C6.38324 9.81862 7.15834 10.5938 7.15834 11.55V15.8754C7.15834 16.8488 7.95466 17.6452 8.92812 17.6452C9.90158 17.6452 10.6979 16.8488 10.6979 15.8754V11.5501V11.55C10.6978 8.59718 8.33817 6.20374 5.42708 6.20374C2.516 6.20374 0.15625 8.59727 0.15625 11.55V15.8754C0.15625 16.8488 0.952579 17.6452 1.92604 17.6452L1.92601 17.6452Z" fill="#F1A904"/>
<path fill-rule="evenodd" clip-rule="evenodd" d="M1.04399 7.64518C0.657579 8.15966 0.311565 8.69161 0.145349 9.23625V7.3498C0.0685527 7.23166 0.0238627 7.09067 0.0238627 6.93929C0.0238627 6.59257 0.257825 6.30059 0.576491 6.21242C0.23073 6.00066 0 5.61935 0 5.18421C0 4.67972 0.310109 4.24773 0.750104 4.06823C0.508489 3.76386 0.36409 3.37886 0.36409 2.96009C0.36409 1.97502 1.16267 1.17639 2.14773 1.17639C3.13286 1.17639 3.93143 1.97501 3.93143 2.96009C3.93143 3.88589 3.22598 4.64697 2.32324 4.73514C2.37901 4.87395 2.40982 5.02548 2.40982 5.18421C2.40982 5.82082 1.91602 6.34213 1.29055 6.38607C1.43919 6.52384 1.53226 6.72071 1.53226 6.93929C1.53226 7.26219 1.3293 7.53765 1.044 7.6452L1.04399 7.64518Z" fill="url(#paint0_linear_570_7106)"/>
<path d="M17.9807 9.74185C17.3731 9.74185 16.857 9.9578 16.4251 10.386C15.9968 10.8143 15.7845 11.3377 15.7845 11.9526C15.7845 12.5602 15.9968 13.0763 16.4251 13.5046C16.857 13.9364 17.3731 14.1487 17.9807 14.1487C18.5956 14.1487 19.119 13.9364 19.5473 13.5046C19.9755 13.0763 20.1915 12.5602 20.1915 11.9526C20.1915 11.3377 19.9755 10.8143 19.5473 10.386C19.119 9.9578 18.5956 9.74185 17.9807 9.74185ZM23.731 11.9526V15.9093C23.731 16.4071 23.5552 16.8317 23.2038 17.1721C22.8525 17.5162 22.3986 17.6882 21.8423 17.6882C21.1688 17.6882 20.6197 17.4393 20.1915 16.9379C19.4887 17.4393 18.6432 17.6882 17.6476 17.6882C16.6557 17.6882 15.7406 17.4283 14.9098 16.9049C14.0752 16.3851 13.4237 15.6824 12.9515 14.8039C12.4793 13.9255 12.2451 12.9738 12.2451 11.9526C12.2451 10.9131 12.5013 9.95414 13.0101 9.07199C13.5225 8.18989 14.218 7.49077 15.1037 6.97469C15.9858 6.46226 16.9448 6.20238 17.9807 6.20238C19.0165 6.20238 19.9755 6.45862 20.854 6.9637C21.7361 7.47249 22.4352 8.1679 22.9513 9.05006C23.4711 9.93217 23.7309 10.8985 23.7309 11.9526L23.731 11.9526ZM30.4402 6.20238C31.1356 6.20238 31.8201 6.31587 32.5009 6.5428C33.178 6.76603 33.7234 7.09182 34.1297 7.52371C34.3932 7.78724 34.525 8.1313 34.525 8.55227C34.525 9.00977 34.3749 9.41606 34.0711 9.77475C33.7673 10.1335 33.383 10.3091 32.9181 10.3091C32.4459 10.3091 32.0616 10.214 31.7579 10.02C31.5894 9.89923 31.4504 9.81141 31.3479 9.75284C31.2417 9.69427 31.11 9.64299 30.9489 9.59176C30.7879 9.54053 30.6195 9.51856 30.4402 9.51856C29.968 9.51856 29.5837 9.70525 29.2835 10.0859C28.9834 10.4629 28.8333 10.957 28.8333 11.5646V15.9313C28.8333 16.4071 28.6576 16.8207 28.3135 17.1684C27.9658 17.5162 27.5486 17.6882 27.0618 17.6882C26.5822 17.6882 26.1723 17.5125 25.8246 17.1612C25.4768 16.8134 25.3048 16.3998 25.3048 15.9313V11.5646C25.3048 9.9212 25.7807 8.61448 26.7287 7.65183C27.6803 6.68555 28.9175 6.20238 30.4402 6.20238ZM36.41 22.8235C35.9305 22.8235 35.5206 22.6478 35.1728 22.3001C34.8251 21.9487 34.6531 21.5388 34.6531 21.0666V11.8025C34.6531 10.7484 34.9166 9.79308 35.44 8.93293C35.9671 8.07274 36.6625 7.39929 37.53 6.92345C38.4011 6.44392 39.3418 6.20236 40.3557 6.20236C41.3952 6.20236 42.3542 6.4586 43.2436 6.97103C44.1294 7.47977 44.8286 8.17524 45.3446 9.05735C45.8571 9.93581 46.1169 10.8948 46.1169 11.9307C46.1169 12.7103 45.9742 13.4533 45.6851 14.1671C45.3996 14.8772 45.0189 15.4884 44.5431 16.0008C44.0709 16.5096 43.5035 16.9195 42.8447 17.227C42.1858 17.5345 41.505 17.6882 40.7986 17.6882C39.7189 17.6882 38.844 17.4393 38.1816 16.9379V21.0666C38.1816 21.5461 38.0059 21.956 37.6618 22.3038C37.3141 22.6515 36.8968 22.8235 36.41 22.8235L36.41 22.8235ZM40.3557 14.1487C40.9706 14.1487 41.494 13.9328 41.9296 13.5009C42.3615 13.069 42.5775 12.5456 42.5775 11.9307C42.5775 11.3231 42.3615 10.807 41.9296 10.3787C41.494 9.95415 40.9706 9.74187 40.3557 9.74187C39.7481 9.74187 39.232 9.95417 38.8038 10.3787C38.3719 10.807 38.1596 11.3231 38.1596 11.9307C38.1596 12.5456 38.3719 13.069 38.8038 13.5009C39.232 13.9328 39.7481 14.1487 40.3557 14.1487ZM52.8957 6.20239C53.8181 6.20239 54.6746 6.38538 55.4725 6.75141C56.2704 7.11381 56.9 7.60062 57.3612 8.20453C57.8224 8.80848 58.053 9.44903 58.053 10.1298C58.053 10.4007 57.9798 10.6166 57.8334 10.7777C57.6869 10.9387 57.438 11.1108 57.0867 11.2975L51.4682 14.2366C51.7098 14.427 52.1527 14.5258 52.7859 14.5258C53.5582 14.5258 54.2756 14.1963 54.9308 13.5375C55.1907 13.2813 55.4359 13.0873 55.6665 12.9592C55.8971 12.8311 56.1606 12.7652 56.4535 12.7652C56.9256 12.7652 57.299 12.908 57.5772 13.1935C57.8517 13.4826 57.9871 13.867 57.9871 14.3538C57.9871 14.7051 57.9066 15.0053 57.7419 15.2542C57.2111 16.0265 56.5084 16.6231 55.6336 17.0513C54.7588 17.476 53.8181 17.6883 52.8079 17.6883C51.7354 17.6883 50.7581 17.432 49.876 16.9159C48.9939 16.3999 48.3058 15.7044 47.8116 14.8296C47.3175 13.9548 47.0723 12.9958 47.0723 11.9527C47.0723 10.9131 47.3321 9.95417 47.8556 9.07202C48.3753 8.18991 49.0854 7.4908 49.9785 6.97472C50.8716 6.46229 51.8452 6.2024 52.8957 6.2024V6.20239ZM52.958 9.32459C52.6944 9.32459 52.4162 9.37946 52.1234 9.48925C51.8306 9.60275 51.5488 9.76012 51.2852 9.96878C51.0217 10.1737 50.8021 10.4483 50.6301 10.7923C50.4617 11.1364 50.3702 11.5134 50.3628 11.9307L54.4477 9.8077C54.1292 9.48561 53.6314 9.32459 52.958 9.32459H52.958ZM65.3662 6.20239C66.2958 6.20239 67.1157 6.44765 67.8258 6.9381C68.5359 7.42856 69.0813 8.08375 69.4546 8.91097C69.8317 9.73815 70.0183 10.6642 70.0183 11.6928V15.9313C70.0183 16.3998 69.8463 16.8134 69.4986 17.1612C69.1508 17.5125 68.7409 17.6882 68.2614 17.6882C67.7892 17.6882 67.372 17.5125 67.0169 17.1612C66.6582 16.8134 66.4789 16.3998 66.4789 15.9313V11.6525C66.4789 11.1144 66.3068 10.6569 65.9664 10.2726C65.6224 9.8919 65.2161 9.69793 64.7439 9.69793C64.2717 9.69793 63.8655 9.8919 63.525 10.2726C63.1847 10.6569 63.0163 11.1144 63.0163 11.6525V15.9313C63.0163 16.3998 62.8406 16.8134 62.4929 17.1612C62.1415 17.5125 61.7242 17.6882 61.2374 17.6882C60.7652 17.6882 60.3553 17.5125 60.0039 17.1612C59.6525 16.8134 59.4768 16.3998 59.4768 15.9313V7.98493C59.4768 7.49077 59.6525 7.06987 60.0039 6.72216C60.3553 6.37809 60.7652 6.20239 61.2374 6.20239C61.5595 6.20239 61.856 6.28657 62.1268 6.45129C62.3977 6.61601 62.6137 6.83195 62.771 7.10282C63.558 6.50251 64.4218 6.20239 65.3661 6.20239H65.3662ZM73.4626 6.20239C73.9531 6.20239 74.3703 6.37809 74.7108 6.72216C75.0511 7.06987 75.2195 7.49079 75.2195 7.98493V15.9313C75.2195 16.4071 75.0475 16.8207 74.7034 17.1685C74.3631 17.5162 73.9457 17.6882 73.4626 17.6882C72.9904 17.6882 72.5732 17.5125 72.2181 17.1612C71.8594 16.8134 71.6801 16.3998 71.6801 15.9313V7.98493C71.6801 7.49811 71.8594 7.08085 72.2108 6.72944C72.5658 6.37809 72.9831 6.20239 73.4626 6.20239ZM72.1632 1.92356C72.5146 1.56851 72.9465 1.38916 73.4626 1.38916C73.975 1.38916 74.4069 1.56851 74.7583 1.92356C75.1097 2.28225 75.2854 2.71784 75.2854 3.23391C75.2854 3.73905 75.1097 4.17094 74.7583 4.52599C74.4069 4.8774 73.975 5.05674 73.4626 5.05674C72.9465 5.05674 72.5146 4.8774 72.1632 4.52599C71.8118 4.17094 71.6398 3.73905 71.6398 3.23391C71.6398 2.71784 71.8118 2.28225 72.1632 1.92356ZM82.8548 6.20239C83.7845 6.20239 84.6044 6.44765 85.3145 6.9381C86.0246 7.42856 86.57 8.08375 86.9433 8.91097C87.3203 9.73815 87.5069 10.6642 87.5069 11.6928V15.9313C87.5069 16.3998 87.3349 16.8134 86.9872 17.1612C86.6395 17.5125 86.2295 17.6882 85.7501 17.6882C85.2779 17.6882 84.8606 17.5125 84.5056 17.1612C84.1469 16.8134 83.9675 16.3998 83.9675 15.9313V11.6525C83.9675 11.1144 83.7955 10.6569 83.4551 10.2726C83.111 9.8919 82.7048 9.69793 82.2326 9.69793C81.7604 9.69793 81.3541 9.8919 81.0137 10.2726C80.6733 10.6569 80.505 11.1144 80.505 11.6525V15.9313C80.505 16.3998 80.3293 16.8134 79.9815 17.1612C79.6301 17.5125 79.2129 17.6882 78.7261 17.6882C78.2539 17.6882 77.844 17.5125 77.4925 17.1612C77.1412 16.8134 76.9655 16.3998 76.9655 15.9313V7.98493C76.9655 7.49077 77.1412 7.06987 77.4925 6.72216C77.844 6.37809 78.2539 6.20239 78.7261 6.20239C79.0482 6.20239 79.3446 6.28657 79.6155 6.45129C79.8864 6.61601 80.1023 6.83195 80.2597 7.10282C81.0466 6.50251 81.9105 6.20239 82.8548 6.20239H82.8548Z" fill="#F1A904"/>
<rect x="94.5068" y="0.67688" width="40.7614" height="22.6462" rx="3.64612" fill="#F6F8FC"/>
<path d="M102.835 7.84302L104.716 7.73364C105.708 7.73364 106.339 7.97428 106.609 8.45557C106.718 8.65246 106.773 8.8931 106.773 9.1775C106.773 10.0234 106.423 10.6943 105.723 11.1902C106.466 11.3287 106.948 11.6204 107.167 12.0652C107.269 12.284 107.32 12.5465 107.32 12.8528C107.32 13.5893 107.01 14.2164 106.39 14.7342C105.777 15.2446 105.052 15.4999 104.213 15.4999H101.369V15.1717H101.741C101.96 15.1717 102.098 15.1316 102.157 15.0514C102.215 14.9712 102.244 14.8509 102.244 14.6904V8.65246C102.244 8.47744 102.211 8.35348 102.146 8.28055C102.087 8.20763 101.953 8.17117 101.741 8.17117H101.369V7.84302H102.835ZM104.016 8.32431C103.725 8.32431 103.455 8.34618 103.207 8.38994V11.2558H104.541C104.942 11.2558 105.281 11.1099 105.559 10.8183C105.843 10.5193 105.985 10.1984 105.985 9.85568C105.985 9.35981 105.788 8.98061 105.395 8.71809C105.001 8.45557 104.541 8.32431 104.016 8.32431ZM104.213 11.7152H103.207V14.8217C103.652 14.953 104.067 15.0186 104.454 15.0186C105.037 15.0186 105.511 14.8764 105.876 14.592C106.24 14.3003 106.423 13.9102 106.423 13.4216C106.423 12.7726 106.189 12.3205 105.723 12.0652C105.307 11.8319 104.804 11.7152 104.213 11.7152ZM114.015 15.4999H108.152V15.1936H108.524C108.736 15.1936 108.874 15.1535 108.94 15.0733C109.013 14.9931 109.049 14.8655 109.049 14.6904V8.65246C109.049 8.50661 109.002 8.38629 108.907 8.29149C108.82 8.19669 108.692 8.14929 108.524 8.14929H108.152V7.84302H113.928L114.015 9.35251L113.709 9.41814C113.709 9.15562 113.603 8.90404 113.392 8.6634C113.18 8.42275 112.885 8.30243 112.506 8.30243H110.515C110.296 8.30243 110.154 8.34618 110.088 8.43369C110.023 8.51391 109.99 8.63058 109.99 8.78372V11.2777H112.178C112.287 11.2777 112.371 11.274 112.429 11.2667C112.488 11.2521 112.539 11.212 112.582 11.1464C112.633 11.0808 112.659 10.986 112.659 10.862V10.3588H112.987V12.634H112.659V12.1746C112.659 11.9923 112.619 11.8756 112.539 11.8246C112.458 11.7662 112.338 11.7371 112.178 11.7371H109.99V14.5592C109.99 14.7123 110.023 14.8326 110.088 14.9201C110.154 15.0004 110.296 15.0405 110.515 15.0405H112.593C112.98 15.0405 113.319 14.9165 113.611 14.6686C113.909 14.4206 114.066 14.18 114.081 13.9466L114.387 13.9904L114.015 15.4999ZM119.459 15.4999H116.615V15.1936H117.052C117.271 15.1936 117.41 15.1535 117.468 15.0733C117.526 14.9858 117.555 14.8655 117.555 14.7123V8.8056C117.555 8.69621 117.548 8.61235 117.534 8.55401C117.519 8.48838 117.472 8.43005 117.391 8.379C117.318 8.32795 117.205 8.30243 117.052 8.30243H116.396C116.009 8.30243 115.71 8.42275 115.499 8.6634C115.295 8.89675 115.185 9.14833 115.171 9.41814L114.865 9.35251L114.974 7.84302H121.121L121.231 9.35251L120.924 9.41814C120.91 9.15562 120.797 8.90404 120.585 8.6634C120.374 8.42275 120.079 8.30243 119.699 8.30243H119.043C118.883 8.30243 118.762 8.3316 118.682 8.38994C118.602 8.44098 118.554 8.49568 118.54 8.55401C118.525 8.61235 118.518 8.69621 118.518 8.8056V14.7123C118.518 14.8144 118.525 14.8946 118.54 14.953C118.554 15.0113 118.602 15.066 118.682 15.117C118.762 15.1681 118.883 15.1936 119.043 15.1936H119.459V15.4999ZM128.729 15.4999H125.929V15.1936H126.279C126.6 15.1936 126.761 15.0915 126.761 14.8873C126.761 14.8582 126.724 14.7342 126.651 14.5154L125.907 12.5684H123.151L122.429 14.4279C122.429 14.4425 122.403 14.5337 122.352 14.7014C122.301 14.8618 122.276 14.9748 122.276 15.0405C122.276 15.0988 122.316 15.1389 122.396 15.1608C122.476 15.1827 122.648 15.1936 122.91 15.1936H123.085V15.4999H120.941V15.1936H121.094C121.335 15.1936 121.51 15.1535 121.62 15.0733C121.729 14.9858 121.824 14.8436 121.904 14.6467L124.31 8.36806C124.347 8.36077 124.412 8.30972 124.507 8.21492C124.602 8.11283 124.69 8.01074 124.77 7.90865C124.85 7.79927 124.89 7.73728 124.89 7.7227C124.89 7.70811 124.886 7.69717 124.879 7.68988L125.032 7.64613L127.723 14.6904C127.803 14.8582 127.884 14.9858 127.964 15.0733C128.051 15.1535 128.175 15.1936 128.336 15.1936H128.729V15.4999ZM125.71 12.109L124.529 8.98061L123.326 12.109H125.71Z" fill="#7E7E8E"/>
<defs>
<linearGradient id="paint0_linear_570_7106" x1="0.514671" y1="6.32298" x2="2.57331" y2="1.1764" gradientUnits="userSpaceOnUse">
<stop stop-color="#93710E"/>
<stop offset="1" stop-color="#F1A904"/>
</linearGradient>
</defs>
</svg>
